<svg width="25" height="23" viewBox="0 0 25 23" fill="none" xmlns="http://www.w3.org/2000/svg">
<g clip-path="url(#clip0_4_103)">
<path d="M2.50004 0H13.5C14.878 0 16 1.122 16 2.49998V8.49998C16 8.77598 15.776 8.99999 15.5 8.99999C15.224 8.99999 15 8.77598 15 8.49998V2.49998C15 1.67297 14.327 0.999984 13.5 0.999984H2.49994C1.67293 0.999984 0.999945 1.67297 0.999945 2.49998V20.5C0.999945 21.327 1.67293 22 2.49994 22H13.5C14.327 22 15 21.327 15 20.5V14.5C15 14.224 15.224 14 15.5 14C15.776 14 16 14.224 16 14.5V20.5C16 21.878 14.878 23 13.5 23H2.50004C1.12205 23 5.43594e-05 21.878 5.43594e-05 20.5V2.49998C7.62939e-06 1.122 1.12201 0 2.50004 0Z" fill="#A5A5A5"/>
<path d="M6.49719 11.0473L22.4969 10.9528C22.7729 10.9511 22.9982 11.1738 22.9998 11.4498C23.0015 11.7258 22.7788 11.9511 22.5028 11.9527L6.50309 12.0472C6.2271 12.0489 6.00176 11.8262 6.00013 11.5502C5.9985 11.2742 6.22119 11.0489 6.49719 11.0473Z" fill="#A5A5A5"/>
</g>
<path d="M23.8909 11.8533L20.9204 14.8826C20.7273 15.0795 20.4103 15.0826 20.2134 14.8895C20.0165 14.6964 20.0134 14.3794 20.2065 14.1825L22.8264 11.5107L20.1546 8.89078C19.9577 8.6977 19.9546 8.3807 20.1477 8.18379C20.2447 8.08585 20.3722 8.03557 20.5002 8.03431C20.6282 8.03306 20.7567 8.08079 20.8546 8.17583L23.8839 11.1463C24.0808 11.3394 24.0839 11.6564 23.8909 11.8533Z" fill="#A5A5A5"/>
<defs>
<clipPath id="clip0_4_103">
<rect width="23" height="23" fill="white" transform="matrix(-1 0 0 1 23 0)"/>
</clipPath>
</defs>
</svg>
